<svg width="367" height="341" viewBox="0 0 367 341" fill="none" xmlns="http://www.w3.org/2000/svg">
<path fill-rule="evenodd" clip-rule="evenodd" d="M62 224.031C62 219.613 58.4183 216.031 54 216.031H8.00001C3.58173 216.031 7.62939e-06 219.613 7.62939e-06 224.031V247.031C7.62939e-06 298.394 41.6375 340.031 93 340.031H99.8889C147.447 340.031 186 301.478 186 253.92V253.92C186 250.115 189.084 247.031 192.889 247.031H253.669C257.339 247.031 260.714 249.041 262.462 252.268L306.596 333.747C308.693 337.619 312.743 340.031 317.147 340.031H358.505C364.582 340.031 368.44 333.523 365.524 328.192L197.074 20.2446C190.246 7.76244 177.152 0 162.925 0V0C141.427 0 124 17.4271 124 38.9246V247.031C124 264.152 110.121 278.031 93 278.031V278.031C75.8792 278.031 62 264.152 62 247.031V224.031ZM232.11 216.031C236.658 216.031 239.552 211.17 237.385 207.172L197.275 133.175C194.309 127.703 186 129.81 186 136.035V208.031C186 212.45 189.582 216.031 194 216.031H232.11Z" fill="url(#paint0_linear_2_21)"/>
<defs>
<linearGradient id="paint0_linear_2_21" x1="7.6294e-06" y1="340.031" x2="372" y2="340.031" gradientUnits="userSpaceOnUse">
<stop stop-color="#0080FF"/>
<stop offset="1" stop-color="#00FFAA"/>
</linearGradient>
</defs>
</svg>
